<?xml version="1.0" encoding="UTF-8"?>
<svg id="Layer_1" data-name="Layer 1" xmlns="http://www.w3.org/2000/svg" viewBox="0 0 160 44">
  <defs>
    <style>
      .cls-1 {
        fill: #231f20;
      }
    </style>
  </defs>
  <g>
    <path class="cls-1" d="M6.08,28.17c4.77-3.2,10.09-5.13,15.54-5.82l4.48-4.61,4.48,4.61c5.45.69,10.78,2.62,15.54,5.82,0,0,0,0,0,0h0L26.11,7.56,6.08,28.17h0s0,0,0,0Z"/>
    <path class="cls-1" d="M48.5,38.96l3.05-3.16h0c-14.05-14.55-36.83-14.55-50.88,0h0s3.05,3.16,3.05,3.16c13.07-10.78,31.71-10.78,44.78,0Z"/>
  </g>
  <g>
    <g>
      <path class="cls-1" d="M54.11,18.73s-.07.02-.09.07l-.51,1.22c-.09.22-.14.44-.14.55,0,.16.09.28.38.28h.14c.11,0,.14.02.14.07,0,.07-.06.09-.16.09-.3,0-.71-.03-1-.03-.1,0-.62.03-1.12.03-.12,0-.18-.02-.18-.09,0-.05.04-.07.11-.07.09,0,.22,0,.29-.02.43-.05.61-.36.8-.8l2.37-5.54c.11-.26.17-.36.26-.36.09,0,.14.08.24.29.23.49,1.74,4.07,2.34,5.42.36.8.63.93.83.97.14.03.28.04.4.04.08,0,.12,0,.12.07,0,.07-.09.09-.44.09s-1.03,0-1.79-.02c-.17,0-.28,0-.28-.07,0-.05.04-.07.13-.08.07-.02.13-.1.09-.21l-.76-1.84s-.05-.06-.09-.06h-2.11ZM56.04,18.28s.06-.03.05-.05l-.85-2.2s-.02-.08-.05-.08-.05.04-.06.08l-.87,2.19s0,.06.04.06h1.74Z"/>
      <path class="cls-1" d="M63.15,19.79c.02.7.14.93.33.99.16.05.34.06.49.06.1,0,.16.02.16.07,0,.07-.09.09-.22.09-.61,0-.99-.03-1.17-.03-.09,0-.53.03-1.02.03-.12,0-.21,0-.21-.09,0-.05.06-.07.15-.07.12,0,.29,0,.43-.04.25-.07.28-.33.29-1.11l.09-5.26c0-.18.03-.3.12-.3.1,0,.19.12.35.28.11.12,1.55,1.55,2.93,2.84.64.61,1.92,1.89,2.08,2.04h.05l-.09-4.01c0-.55-.09-.72-.32-.8-.14-.05-.37-.05-.5-.05-.11,0-.15-.03-.15-.08,0-.07.1-.08.25-.08.49,0,.95.03,1.14.03.1,0,.46-.03.93-.03.12,0,.22,0,.22.08,0,.05-.06.08-.17.08-.09,0-.17,0-.28.03-.26.07-.34.26-.35.76l-.1,5.64c0,.2-.04.28-.12.28-.1,0-.22-.1-.32-.2-.6-.54-1.81-1.71-2.79-2.63-1.03-.97-2.08-2.06-2.25-2.23h-.03l.1,3.73Z"/>
      <path class="cls-1" d="M75.1,14.75l-1.41.04c-.55.02-.78.06-.92.26-.09.13-.14.24-.16.31-.02.07-.05.11-.1.11-.07,0-.09-.04-.09-.14,0-.14.18-.96.2-1.03.03-.12.06-.17.11-.17.08,0,.17.09.41.11.27.03.63.04.95.04h3.74c.3,0,.51-.03.65-.04.14-.03.22-.04.26-.04.07,0,.08.05.08.19,0,.19-.03.8-.03,1.04,0,.09-.03.14-.09.14-.08,0-.09-.04-.1-.18v-.1c-.03-.23-.28-.48-1.12-.5l-1.19-.03v3.66c0,.82,0,1.53.05,1.91.03.25.09.45.37.48.13.02.34.04.48.04.1,0,.15.03.15.07,0,.06-.08.09-.18.09-.62,0-1.22-.03-1.48-.03-.22,0-.81.03-1.19.03-.12,0-.19-.03-.19-.09,0-.04.04-.07.15-.07.14,0,.26-.02.34-.04.19-.04.25-.23.27-.49.05-.38.05-1.08.05-1.9v-3.66Z"/>
      <path class="cls-1" d="M82.63,18.73s-.07.02-.09.07l-.51,1.22c-.09.22-.14.44-.14.55,0,.16.09.28.38.28h.14c.11,0,.14.02.14.07,0,.07-.06.09-.16.09-.3,0-.71-.03-1-.03-.1,0-.62.03-1.12.03-.12,0-.18-.02-.18-.09,0-.05.04-.07.11-.07.09,0,.22,0,.29-.02.43-.05.61-.36.8-.8l2.37-5.54c.11-.26.17-.36.26-.36.09,0,.14.08.24.29.23.49,1.74,4.07,2.34,5.42.36.8.63.93.83.97.14.03.28.04.4.04.08,0,.12,0,.12.07,0,.07-.09.09-.44.09s-1.03,0-1.79-.02c-.17,0-.28,0-.28-.07,0-.05.04-.07.13-.08.07-.02.13-.1.09-.21l-.76-1.84s-.05-.06-.09-.06h-2.11ZM84.56,18.28s.06-.03.05-.05l-.85-2.2s-.02-.08-.05-.08-.05.04-.06.08l-.87,2.19s0,.06.04.06h1.74Z"/>
      <path class="cls-1" d="M92.32,18.42c0,1.14,0,1.76.2,1.92.16.13.41.2,1.14.2.5,0,.87,0,1.11-.25.11-.12.23-.37.25-.54,0-.08.03-.13.1-.13.07,0,.08.04.08.15,0,.1-.07.77-.14,1.03-.06.2-.1.24-.6.24-.68,0-1.17-.02-1.6-.03-.43-.02-.55-.03-.94-.03-.1,0-.31,0-.54,0-.22,0-.46.02-.65.02-.12,0-.19-.03-.19-.09,0-.04.04-.07.15-.07.14,0,.26-.02.34-.04.19-.04.24-.23.27-.49.05-.38.05-1.08.05-1.9v-1.57c0-1.36,0-1.61-.02-1.89-.02-.3-.09-.45-.41-.51-.08-.02-.19-.03-.31-.03-.1,0-.16-.02-.16-.08s.07-.08.21-.08c.44,0,1.04.03,1.3.03.23,0,.7-.03,1.07-.03.13,0,.2.02.2.08s-.06.08-.17.08c-.1,0-.26,0-.37.03-.26.04-.33.2-.35.51-.02.29-.02.54-.02,1.89v1.57Z"/>
      <path class="cls-1" d="M99.8,18.69c0-.48-.09-.68-.22-.94-.07-.14-1.33-2.11-1.66-2.57-.24-.33-.47-.55-.65-.65-.12-.06-.28-.12-.4-.12-.08,0-.14-.02-.14-.08,0-.05.07-.08.18-.08.17,0,.88.03,1.19.03.2,0,.59-.03,1.01-.03.09,0,.14.03.14.08s-.07.06-.21.1c-.09.02-.13.09-.13.16s.05.18.11.3c.13.27,1.46,2.42,1.61,2.67.09-.21,1.29-2.18,1.42-2.46.09-.2.13-.35.13-.46,0-.09-.04-.19-.2-.22-.09-.02-.17-.04-.17-.09,0-.06.05-.08.16-.08.31,0,.61.03.89.03.21,0,.83-.03,1.01-.03.1,0,.17.02.17.07,0,.06-.08.09-.18.09-.09,0-.27.04-.42.11-.2.09-.3.2-.51.44-.31.36-1.64,2.46-1.81,2.84-.14.32-.14.6-.14.89v.73c0,.14,0,.52.03.89.02.26.1.46.39.49.13.02.34.04.47.04.1,0,.15.03.15.07,0,.06-.08.09-.2.09-.6,0-1.19-.03-1.45-.03-.24,0-.83.03-1.18.03-.13,0-.21-.02-.21-.09,0-.04.05-.07.15-.07.13,0,.25-.02.33-.04.19-.04.27-.23.29-.49.03-.38.03-.75.03-.89v-.73Z"/>
      <path class="cls-1" d="M107.54,18.73s-.07.02-.09.07l-.51,1.22c-.09.22-.14.44-.14.55,0,.16.09.28.38.28h.14c.11,0,.14.02.14.07,0,.07-.06.09-.16.09-.3,0-.71-.03-1-.03-.1,0-.62.03-1.12.03-.12,0-.18-.02-.18-.09,0-.05.04-.07.11-.07.09,0,.22,0,.29-.02.43-.05.61-.36.8-.8l2.37-5.54c.11-.26.17-.36.26-.36.09,0,.14.08.24.29.23.49,1.74,4.07,2.34,5.42.36.8.63.93.83.97.14.03.28.04.4.04.08,0,.12,0,.12.07,0,.07-.09.09-.44.09s-1.03,0-1.79-.02c-.17,0-.28,0-.28-.07,0-.05.04-.07.13-.08.07-.02.13-.1.09-.21l-.76-1.84s-.05-.06-.09-.06h-2.11ZM109.46,18.28s.06-.03.05-.05l-.85-2.2s-.02-.08-.05-.08-.05.04-.06.08l-.87,2.19s0,.06.04.06h1.74Z"/>
      <path class="cls-1" d="M121.15,16.84c0-1.36,0-1.61-.02-1.89-.02-.3-.09-.45-.41-.51-.08-.02-.24-.03-.37-.03-.1,0-.16-.02-.16-.08s.07-.08.21-.08c.5,0,1.1.03,1.29.03.46,0,.83-.03,1.15-.03,1.71,0,2.01.87,2.01,1.34,0,.73-.44,1.17-.96,1.56.78.25,1.72.88,1.72,1.93,0,.96-.78,1.95-2.52,1.95-.11,0-.39-.02-.66-.03-.28-.02-.57-.03-.71-.03-.1,0-.31,0-.54,0-.22,0-.46.02-.65.02-.12,0-.19-.03-.19-.09,0-.04.04-.07.15-.07.14,0,.26-.02.34-.04.19-.04.24-.23.27-.49.05-.38.05-1.08.05-1.9v-1.57ZM122.28,16.99c0,.07.03.09.07.1.09.02.23.03.44.03.31,0,.52-.04.68-.17.25-.19.39-.51.39-.95,0-.6-.37-1.39-1.18-1.39-.13,0-.22,0-.31.02-.07.02-.09.05-.09.15v2.21ZM123.53,17.71c-.2-.13-.42-.2-.78-.21-.17,0-.26,0-.41,0-.04,0-.06.02-.06.06v2.12c0,.59.03.74.33.86.26.1.47.11.69.11.43,0,1.14-.21,1.14-1.14,0-.55-.2-1.3-.92-1.78Z"/>
      <path class="cls-1" d="M129.91,16.84c0-1.36,0-1.61-.02-1.89-.02-.3-.11-.46-.32-.5-.1-.03-.23-.04-.34-.04-.09,0-.15-.02-.15-.09,0-.05.08-.07.23-.07.36,0,.95.03,1.23.03.24,0,.79-.03,1.15-.03.12,0,.2.02.2.07,0,.07-.06.09-.15.09s-.17,0-.28.03c-.26.04-.33.2-.35.51-.02.29-.02.54-.02,1.89v1.57c0,.87,0,1.57.04,1.96.03.24.09.4.38.44.13.02.34.04.48.04.1,0,.15.03.15.07,0,.06-.08.09-.18.09-.62,0-1.22-.03-1.47-.03-.22,0-.81.03-1.19.03-.12,0-.19-.03-.19-.09,0-.04.04-.07.15-.07.14,0,.26-.02.34-.04.19-.04.25-.19.27-.45.05-.38.05-1.08.05-1.95v-1.57ZM129.96,13.06c0-.22.15-.52.53-.52.3,0,.54.19.54.48s-.22.54-.54.54c-.38,0-.53-.28-.53-.5Z"/>
      <path class="cls-1" d="M137.63,18.42c0,1.14,0,1.76.2,1.92.16.13.41.2,1.14.2.5,0,.87,0,1.11-.25.11-.12.23-.37.25-.54,0-.08.03-.13.1-.13.07,0,.08.04.08.15,0,.1-.07.77-.14,1.03-.06.2-.1.24-.6.24-.68,0-1.17-.02-1.6-.03-.43-.02-.77-.03-1.15-.03-.1,0-.31,0-.54,0-.22,0-.46.02-.65.02-.12,0-.19-.03-.19-.09,0-.04.04-.07.15-.07.14,0,.26-.02.34-.04.19-.04.24-.23.27-.49.05-.38.05-1.08.05-1.9v-1.57c0-1.36,0-1.61-.02-1.89-.02-.3-.09-.45-.41-.51-.08-.02-.19-.03-.31-.03-.1,0-.16-.02-.16-.08s.07-.08.21-.08c.44,0,1.04.03,1.3.03.23,0,.92-.03,1.29-.03.13,0,.2.02.2.08s-.06.08-.17.08c-.1,0-.26,0-.37.03-.26.04-.33.2-.35.51-.02.29-.02.54-.02,1.89v1.57Z"/>
      <path class="cls-1" d="M144.43,16.84c0-1.36,0-1.61-.02-1.89-.02-.3-.11-.46-.32-.5-.1-.03-.23-.04-.34-.04-.09,0-.15-.02-.15-.09,0-.05.08-.07.23-.07.36,0,.95.03,1.23.03.24,0,.79-.03,1.15-.03.12,0,.2.02.2.07,0,.07-.06.09-.15.09s-.17,0-.28.03c-.26.04-.33.2-.35.51-.02.29-.02.54-.02,1.89v1.57c0,.87,0,1.57.04,1.96.03.24.09.4.38.44.13.02.34.04.48.04.1,0,.15.03.15.07,0,.06-.08.09-.18.09-.62,0-1.22-.03-1.47-.03-.22,0-.81.03-1.19.03-.12,0-.19-.03-.19-.09,0-.04.04-.07.15-.07.14,0,.26-.02.34-.04.19-.04.25-.19.27-.45.05-.38.05-1.08.05-1.95v-1.57ZM144.49,13.06c0-.22.15-.52.53-.52.3,0,.54.19.54.48s-.22.54-.54.54c-.38,0-.53-.28-.53-.5Z"/>
      <path class="cls-1" d="M151.32,14.36c.03-.15.09-.23.16-.23s.13.04.26.28l2.58,4.97,2.57-5.03c.08-.14.12-.21.21-.21s.14.09.17.28l.86,5.47c.09.56.18.82.46.9.27.08.46.09.59.09.09,0,.15,0,.15.06,0,.07-.11.1-.25.1-.24,0-1.54-.02-1.92-.04-.22-.02-.27-.04-.27-.1,0-.04.04-.07.1-.1.06-.02.09-.13.05-.38l-.57-3.89h-.04l-2.06,3.99c-.22.42-.26.5-.35.5s-.18-.18-.33-.45c-.23-.41-.97-1.78-1.09-2.03-.09-.19-.65-1.24-.98-1.91h-.04l-.49,3.49c-.02.16-.03.28-.03.42,0,.17.12.25.28.29.17.04.3.04.4.04.08,0,.14.02.14.06,0,.08-.09.1-.23.1-.4,0-.82-.03-.99-.03-.18,0-.63.03-.94.03-.09,0-.17-.02-.17-.1,0-.04.06-.06.15-.06.08,0,.14,0,.28-.03.26-.05.34-.4.39-.71l.94-5.76Z"/>
    </g>
    <g>
      <path class="cls-1" d="M58.13,28.07c0-1.35,0-1.59-.02-1.87-.02-.29-.09-.43-.41-.49-.08-.02-.24-.03-.32-.03-.04,0-.08-.02-.08-.05,0-.05.05-.07.15-.07.43,0,1,.03,1.09.03s.65-.03.94-.03c.1,0,.15.02.15.07,0,.03-.04.05-.08.05-.07,0-.12,0-.24.03-.26.03-.33.19-.35.49-.02.28-.02.52-.02,1.87v1.21c0,1.25.3,1.78.71,2.14.46.4.89.48,1.43.48.58,0,1.15-.25,1.49-.62.44-.49.55-1.23.55-2.12v-1.08c0-1.35,0-1.59-.02-1.87-.02-.29-.09-.43-.41-.49-.08-.02-.24-.03-.32-.03-.04,0-.08-.02-.08-.05,0-.05.05-.07.15-.07.43,0,.95.03,1,.03.07,0,.51-.03.8-.03.1,0,.15.02.15.07,0,.03-.04.05-.08.05-.07,0-.12,0-.24.03-.26.05-.33.19-.35.49-.02.28-.02.52-.02,1.87v.93c0,.94-.11,1.97-.87,2.59-.68.55-1.39.64-1.95.64-.32,0-1.28-.03-1.95-.61-.46-.41-.82-1.01-.82-2.28v-1.26ZM59.75,24.52c0-.16.11-.37.41-.37.23,0,.41.13.41.35s-.16.4-.42.4c-.28,0-.4-.21-.4-.37ZM61.66,24.52c0-.16.11-.37.41-.37.23,0,.41.13.41.35s-.16.4-.42.4c-.28,0-.4-.21-.4-.37Z"/>
      <path class="cls-1" d="M69.08,30.93c.02.71.11.94.37,1,.18.04.39.05.47.05.05,0,.08.02.08.05,0,.05-.06.07-.17.07-.54,0-.92-.03-1-.03s-.48.03-.91.03c-.09,0-.15,0-.15-.07,0-.03.03-.05.08-.05.08,0,.25,0,.39-.05.24-.06.28-.31.28-1.1v-4.96c0-.34.04-.43.11-.43s.24.19.33.28c.14.15,1.55,1.54,3.01,2.97.94.92,1.97,1.97,2.28,2.26l-.1-4.4c0-.56-.08-.75-.37-.82-.17-.03-.39-.04-.46-.04-.07,0-.08-.03-.08-.06,0-.05.08-.06.19-.06.43,0,.88.03.99.03s.42-.03.81-.03c.1,0,.17,0,.17.06,0,.03-.04.06-.1.06-.05,0-.11,0-.23.03-.31.06-.35.25-.35.77l-.02,5.07c0,.57-.02.61-.09.61-.08,0-.19-.1-.69-.55-.1-.09-1.47-1.36-2.47-2.35-1.1-1.08-2.17-2.17-2.47-2.49l.12,4.15Z"/>
      <path class="cls-1" d="M80.87,29.6c0,.83,0,1.52.05,1.88.03.25.09.44.37.48.13.02.34.03.43.03.06,0,.08.03.08.05,0,.04-.05.07-.15.07-.52,0-1.12-.03-1.17-.03s-.64.03-.93.03c-.1,0-.15-.02-.15-.07,0-.03.02-.05.08-.05.09,0,.2-.02.28-.03.19-.03.24-.23.28-.48.05-.36.05-1.05.05-1.88v-1.52c0-1.35,0-1.59-.02-1.87-.02-.29-.11-.44-.32-.48-.1-.03-.23-.03-.29-.03-.04,0-.08-.02-.08-.05,0-.05.05-.07.15-.07.31,0,.91.03.96.03s.64-.03.93-.03c.1,0,.15.02.15.07,0,.03-.04.05-.08.05-.07,0-.12,0-.24.03-.26.04-.33.19-.35.49-.02.28-.02.52-.02,1.87v1.52ZM79.99,24.45c0-.19.14-.45.48-.45.28,0,.49.16.49.42s-.2.47-.49.47c-.34,0-.48-.24-.48-.44Z"/>
      <path class="cls-1" d="M88.58,31.05c.55-1.16,1.82-4.18,2.03-4.81.05-.13.09-.25.09-.33,0-.07-.03-.16-.12-.2-.11-.03-.26-.03-.36-.03-.06,0-.1,0-.1-.05,0-.05.06-.07.21-.07.38,0,.82.03.93.03.06,0,.46-.03.74-.03.1,0,.16.02.16.06s-.04.06-.11.06c-.07,0-.28,0-.46.1-.12.08-.27.23-.52.81-.1.24-.58,1.28-1.06,2.35-.58,1.26-1,2.2-1.22,2.62-.27.52-.3.66-.4.66-.11,0-.16-.12-.34-.54l-2.32-5.31c-.21-.49-.35-.58-.68-.67-.14-.03-.3-.03-.36-.03s-.08-.03-.08-.06c0-.05.09-.06.25-.06.46,0,1,.03,1.11.03.09,0,.52-.03.88-.03.17,0,.26.02.26.06s-.03.06-.09.06c-.1,0-.27,0-.36.04-.1.04-.12.11-.12.17,0,.11.11.38.26.72l1.82,4.43Z"/>
      <path class="cls-1" d="M95.83,28.07c0-1.35,0-1.59-.02-1.87-.02-.29-.09-.43-.41-.49-.08-.02-.24-.03-.32-.03-.04,0-.08-.02-.08-.05,0-.05.05-.07.15-.07.22,0,.47,0,.68,0l.39.02c.07,0,1.95,0,2.17,0,.18,0,.33-.03.41-.04.05,0,.09-.04.13-.04.03,0,.04.03.04.08,0,.06-.05.16-.08.41,0,.09-.03.47-.05.57,0,.04-.03.1-.07.1-.06,0-.08-.04-.08-.11,0-.06,0-.21-.06-.31-.07-.14-.16-.24-.67-.29-.16-.02-1.19-.03-1.3-.03-.04,0-.06.03-.06.09v2.39c0,.06,0,.09.06.09.12,0,1.29,0,1.51-.02.23-.02.36-.03.45-.12.07-.07.1-.11.14-.11.03,0,.05.02.05.07s-.05.2-.08.49c-.02.17-.04.49-.04.55,0,.07,0,.16-.07.16-.05,0-.07-.03-.07-.08,0-.09,0-.17-.04-.29-.04-.12-.12-.27-.49-.3-.26-.03-1.19-.04-1.36-.04-.05,0-.07.03-.07.06v.76c0,.29,0,1.3,0,1.48.03.6.17.71,1.1.71.25,0,.66,0,.91-.1s.36-.27.43-.62c.02-.1.04-.13.09-.13.06,0,.06.07.06.13,0,.07-.08.66-.12.84-.07.23-.14.23-.51.23-.71,0-1.23-.02-1.6-.03-.37-.02-.6-.03-.74-.03-.02,0-.18,0-.38,0-.19,0-.41.02-.55.02-.1,0-.15-.02-.15-.07,0-.03.02-.05.08-.05.09,0,.2-.02.28-.03.19-.03.24-.23.27-.48.05-.36.05-1.05.05-1.88v-1.52Z"/>
      <path class="cls-1" d="M103.88,28.07c0-1.35,0-1.59-.02-1.87-.02-.29-.09-.43-.41-.49-.08-.02-.24-.03-.32-.03-.04,0-.08-.02-.08-.05,0-.05.05-.07.15-.07.43,0,1.02.03,1.07.03.1,0,.82-.03,1.12-.03.6,0,1.23.05,1.73.38.24.16.65.58.65,1.18,0,.64-.29,1.28-1.15,2,.78.91,1.42,1.68,1.97,2.22.51.49.92.59,1.16.62.18.03.31.03.37.03.05,0,.09.03.09.05,0,.05-.06.07-.23.07h-.67c-.53,0-.77-.04-1.01-.16-.41-.2-.74-.62-1.28-1.27-.4-.48-.84-1.06-1.03-1.28-.04-.03-.07-.05-.12-.05l-1.17-.02s-.07.03-.07.07v.21c0,.83,0,1.52.05,1.88.03.25.09.44.37.48.13.02.34.03.43.03.06,0,.08.03.08.05,0,.04-.05.07-.15.07-.52,0-1.12-.03-1.17-.03,0,0-.61.03-.89.03-.1,0-.15-.02-.15-.07,0-.03.02-.05.08-.05.09,0,.2-.02.28-.03.19-.03.24-.23.27-.48.05-.36.05-1.05.05-1.88v-1.52ZM104.64,28.83s.02.08.07.1c.14.08.58.14,1,.14.23,0,.49-.03.71-.16.33-.21.58-.68.58-1.33,0-1.08-.63-1.73-1.64-1.73-.28,0-.54.03-.64.05-.05.02-.08.05-.08.1v2.83Z"/>
      <path class="cls-1" d="M112.6,32c-.13-.06-.14-.1-.14-.33,0-.43.04-.78.05-.92,0-.1.03-.14.08-.14.06,0,.07.03.07.1,0,.08,0,.2.03.32.14.64.77.88,1.4.88.91,0,1.36-.6,1.36-1.15,0-.6-.28-.94-1.09-1.56l-.43-.32c-1-.75-1.23-1.29-1.23-1.88,0-.93.76-1.56,1.96-1.56.37,0,.64.03.88.09.18.03.26.04.33.04s.09.02.09.06-.04.33-.04.92c0,.14-.02.2-.07.2-.06,0-.07-.04-.08-.11,0-.1-.07-.34-.12-.43-.06-.1-.31-.46-1.18-.46-.65,0-1.17.37-1.17,1,0,.49.25.81,1.16,1.45l.27.19c1.12.81,1.38,1.34,1.38,2.03,0,.35-.15,1.01-.81,1.44-.41.26-.92.36-1.43.36-.45,0-.88-.06-1.27-.23Z"/>
      <path class="cls-1" d="M121.68,29.6c0,.83,0,1.52.05,1.88.03.25.09.44.37.48.13.02.34.03.43.03.06,0,.08.03.08.05,0,.04-.05.07-.15.07-.52,0-1.12-.03-1.17-.03s-.64.03-.93.03c-.1,0-.15-.02-.15-.07,0-.03.02-.05.08-.05.09,0,.2-.02.28-.03.19-.03.24-.23.27-.48.05-.36.05-1.05.05-1.88v-1.52c0-1.35,0-1.59-.02-1.87-.02-.29-.11-.44-.32-.48-.1-.03-.23-.03-.29-.03-.04,0-.08-.02-.08-.05,0-.05.05-.07.15-.07.31,0,.91.03.96.03s.64-.03.93-.03c.1,0,.15.02.15.07,0,.03-.04.05-.08.05-.07,0-.12,0-.24.03-.26.04-.33.19-.35.49-.02.28-.02.52-.02,1.87v1.52ZM120.8,24.45c0-.19.14-.45.48-.45.28,0,.49.16.49.42s-.2.47-.49.47c-.34,0-.48-.24-.48-.44Z"/>
      <path class="cls-1" d="M129.35,29.6c0,.83,0,1.52.05,1.88.03.25.09.44.37.48.13.02.34.03.43.03.06,0,.08.03.08.05,0,.04-.05.07-.15.07-.52,0-1.12-.03-1.17-.03s-.64.03-.93.03c-.1,0-.15-.02-.15-.07,0-.03.02-.05.08-.05.09,0,.2-.02.28-.03.19-.03.24-.23.27-.48.05-.36.05-1.05.05-1.88v-3.66l-1.4.02c-.59,0-.82.07-.97.28-.1.15-.13.21-.16.27-.03.07-.06.09-.09.09-.03,0-.05-.03-.05-.08,0-.09.19-.83.21-.9.02-.05.06-.16.09-.16.07,0,.16.09.42.1.27.03.64.04.75.04h3.56c.3,0,.52-.02.67-.04.14-.02.23-.04.27-.04.05,0,.05.05.05.1,0,.26-.03.86-.03.95,0,.08-.03.11-.07.11-.05,0-.07-.03-.08-.15v-.1c-.04-.26-.27-.46-1.18-.48l-1.19-.02v3.66Z"/>
      <path class="cls-1" d="M136.16,28.07c0-1.35,0-1.59-.02-1.87-.02-.29-.09-.43-.41-.49-.08-.02-.24-.03-.32-.03-.04,0-.08-.02-.08-.05,0-.05.05-.07.15-.07.22,0,.47,0,.68,0l.39.02c.07,0,1.95,0,2.17,0,.18,0,.33-.03.41-.04.05,0,.09-.04.13-.04.03,0,.04.03.04.08,0,.06-.05.16-.08.41,0,.09-.03.47-.05.57,0,.04-.03.1-.07.1-.06,0-.08-.04-.08-.11,0-.06,0-.21-.06-.31-.07-.14-.16-.24-.67-.29-.16-.02-1.19-.03-1.3-.03-.04,0-.06.03-.06.09v2.39c0,.06,0,.09.06.09.12,0,1.29,0,1.51-.02.23-.02.36-.03.45-.12.07-.07.1-.11.14-.11.03,0,.05.02.05.07s-.05.2-.08.49c-.02.17-.04.49-.04.55,0,.07,0,.16-.07.16-.05,0-.07-.03-.07-.08,0-.09,0-.17-.04-.29-.04-.12-.12-.27-.49-.3-.26-.03-1.19-.04-1.36-.04-.05,0-.07.03-.07.06v.76c0,.29,0,1.3,0,1.48.03.6.17.71,1.1.71.25,0,.66,0,.91-.1s.36-.27.43-.62c.02-.1.04-.13.09-.13.06,0,.06.07.06.13,0,.07-.08.66-.12.84-.07.23-.14.23-.51.23-.71,0-1.23-.02-1.6-.03-.37-.02-.6-.03-.74-.03-.02,0-.18,0-.38,0-.19,0-.41.02-.55.02-.1,0-.15-.02-.15-.07,0-.03.02-.05.08-.05.09,0,.2-.02.28-.03.19-.03.24-.23.27-.48.05-.36.05-1.05.05-1.88v-1.52Z"/>
      <path class="cls-1" d="M143.61,32c-.13-.06-.14-.1-.14-.33,0-.43.04-.78.05-.92,0-.1.03-.14.08-.14.06,0,.07.03.07.1,0,.08,0,.2.03.32.14.64.77.88,1.4.88.91,0,1.36-.6,1.36-1.15,0-.6-.28-.94-1.09-1.56l-.43-.32c-1-.75-1.23-1.29-1.23-1.88,0-.93.76-1.56,1.96-1.56.37,0,.64.03.88.09.18.03.26.04.33.04s.09.02.09.06-.04.33-.04.92c0,.14-.02.2-.07.2-.06,0-.07-.04-.08-.11,0-.1-.07-.34-.12-.43-.06-.1-.31-.46-1.18-.46-.65,0-1.17.37-1.17,1,0,.49.25.81,1.16,1.45l.27.19c1.12.81,1.38,1.34,1.38,2.03,0,.35-.15,1.01-.81,1.44-.41.26-.92.36-1.43.36-.45,0-.88-.06-1.27-.23Z"/>
      <path class="cls-1" d="M152.69,29.6c0,.83,0,1.52.05,1.88.03.25.09.44.37.48.13.02.34.03.43.03.06,0,.08.03.08.05,0,.04-.05.07-.15.07-.52,0-1.12-.03-1.17-.03s-.64.03-.93.03c-.1,0-.15-.02-.15-.07,0-.03.02-.05.08-.05.09,0,.2-.02.28-.03.19-.03.24-.23.28-.48.05-.36.05-1.05.05-1.88v-1.52c0-1.35,0-1.59-.02-1.87-.02-.29-.11-.44-.32-.48-.1-.03-.23-.03-.29-.03-.04,0-.08-.02-.08-.05,0-.05.05-.07.15-.07.31,0,.91.03.96.03s.64-.03.93-.03c.1,0,.15.02.15.07,0,.03-.04.05-.08.05-.07,0-.12,0-.24.03-.26.04-.33.19-.35.49-.02.28-.02.52-.02,1.87v1.52ZM151.8,24.45c0-.19.14-.45.48-.45.28,0,.49.16.49.42s-.2.47-.49.47c-.34,0-.48-.24-.48-.44Z"/>
    </g>
  </g>
</svg>